<svg id="visual" viewBox="0 0 960 540" width="960" height="540" xmlns="http://www.w3.org/2000/svg" xmlns:xlink="http://www.w3.org/1999/xlink" version="1.1"><g stroke-width="1" stroke-linejoin="bevel"><path d="M480 270L480 135L320 135Z" fill="#26b36e" stroke="#26b36e"></path><path d="M320 135L320 270L480 270Z" fill="#28b570" stroke="#28b570"></path><path d="M320 270L320 405L480 270Z" fill="#20ad68" stroke="#20ad68"></path><path d="M320 405L480 405L480 270Z" fill="#2cb975" stroke="#2cb975"></path><path d="M480 135L480 0L320 135Z" fill="#2cb975" stroke="#2cb975"></path><path d="M480 0L320 0L320 135Z" fill="#18a862" stroke="#18a862"></path><path d="M320 0L160 135L320 135Z" fill="#2cb975" stroke="#2cb975"></path><path d="M320 135L160 135L320 270Z" fill="#24b16c" stroke="#24b16c"></path><path d="M320 270L160 270L320 405Z" fill="#18a862" stroke="#18a862"></path><path d="M480 270L640 135L480 135Z" fill="#2ab773" stroke="#2ab773"></path><path d="M480 135L640 135L480 0Z" fill="#18a862" stroke="#18a862"></path><path d="M640 270L640 135L480 270Z" fill="#24b16c" stroke="#24b16c"></path><path d="M160 135L160 270L320 270Z" fill="#28b570" stroke="#28b570"></path><path d="M480 405L640 270L480 270Z" fill="#2ebb77" stroke="#2ebb77"></path><path d="M640 135L640 0L480 0Z" fill="#2cb975" stroke="#2cb975"></path><path d="M480 405L640 405L640 270Z" fill="#26b36e" stroke="#26b36e"></path><path d="M320 0L160 0L160 135Z" fill="#2ab773" stroke="#2ab773"></path><path d="M160 270L160 405L320 405Z" fill="#28b570" stroke="#28b570"></path><path d="M320 405L480 540L480 405Z" fill="#2ab773" stroke="#2ab773"></path><path d="M480 405L480 540L640 405Z" fill="#2ebb77" stroke="#2ebb77"></path><path d="M320 540L480 540L320 405Z" fill="#18a862" stroke="#18a862"></path><path d="M160 405L320 540L320 405Z" fill="#22af6a" stroke="#22af6a"></path><path d="M160 0L0 135L160 135Z" fill="#1baa64" stroke="#1baa64"></path><path d="M160 135L0 135L160 270Z" fill="#24b16c" stroke="#24b16c"></path><path d="M160 270L0 270L160 405Z" fill="#2ab773" stroke="#2ab773"></path><path d="M0 135L0 270L160 270Z" fill="#22af6a" stroke="#22af6a"></path><path d="M640 405L800 270L640 270Z" fill="#28b570" stroke="#28b570"></path><path d="M640 270L800 270L640 135Z" fill="#2ebb77" stroke="#2ebb77"></path><path d="M640 135L800 135L640 0Z" fill="#1baa64" stroke="#1baa64"></path><path d="M800 270L800 135L640 135Z" fill="#2ebb77" stroke="#2ebb77"></path><path d="M640 405L800 405L800 270Z" fill="#24b16c" stroke="#24b16c"></path><path d="M480 540L640 540L640 405Z" fill="#24b16c" stroke="#24b16c"></path><path d="M0 405L160 540L160 405Z" fill="#20ad68" stroke="#20ad68"></path><path d="M160 405L160 540L320 540Z" fill="#28b570" stroke="#28b570"></path><path d="M640 540L800 405L640 405Z" fill="#2cb975" stroke="#2cb975"></path><path d="M160 0L0 0L0 135Z" fill="#28b570" stroke="#28b570"></path><path d="M0 270L0 405L160 405Z" fill="#24b16c" stroke="#24b16c"></path><path d="M800 135L800 0L640 0Z" fill="#1baa64" stroke="#1baa64"></path><path d="M0 405L0 540L160 540Z" fill="#2ab773" stroke="#2ab773"></path><path d="M640 540L800 540L800 405Z" fill="#1dac66" stroke="#1dac66"></path><path d="M960 405L960 270L800 405Z" fill="#1baa64" stroke="#1baa64"></path><path d="M800 405L960 270L800 270Z" fill="#1baa64" stroke="#1baa64"></path><path d="M800 270L960 270L800 135Z" fill="#2ab773" stroke="#2ab773"></path><path d="M800 135L960 135L800 0Z" fill="#1baa64" stroke="#1baa64"></path><path d="M960 270L960 135L800 135Z" fill="#20ad68" stroke="#20ad68"></path><path d="M800 540L960 405L800 405Z" fill="#2ab773" stroke="#2ab773"></path><path d="M960 135L960 0L800 0Z" fill="#26b36e" stroke="#26b36e"></path><path d="M800 540L960 540L960 405Z" fill="#18a862" stroke="#18a862"></path></g></svg>